<svg xmlns="http://www.w3.org/2000/svg" version="1.1" xmlns:xlink="http://www.w3.org/1999/xlink" xmlns:svgjs="http://svgjs.com/svgjs" width="1900" height="1000" preserveAspectRatio="none" viewBox="0 0 1900 1000"><g mask="url(&quot;#SvgjsMask3298&quot;)" fill="none"><rect width="1900" height="1000" x="0" y="0" fill="url(#SvgjsLinearGradient3299)"></rect><path d="M158.21 212.46L226.62 251.96L226.62 330.96L158.21 370.46L89.79 330.96L89.79 251.96zM226.62 567.96L295.04 607.46L295.04 686.46L226.62 725.96L158.21 686.46L158.21 607.46zM158.21 923.46L226.62 962.96L226.62 1041.96L158.21 1081.46L89.79 1041.96L89.79 962.96zM363.46 330.96L431.88 370.46L431.88 449.46L363.46 488.96L295.04 449.46L295.04 370.46zM363.46 567.96L431.88 607.46L431.88 686.46L363.46 725.96L295.04 686.46L295.04 607.46zM295.04 686.46L363.46 725.96L363.46 804.96L295.04 844.46L226.62 804.96L226.62 725.96zM363.46 804.96L431.88 844.46L431.88 923.46L363.46 962.96L295.04 923.46L295.04 844.46zM500.3 330.96L568.71 370.46L568.71 449.46L500.3 488.96L431.88 449.46L431.88 370.46zM431.88 449.46L500.3 488.96L500.3 567.96L431.88 607.46L363.46 567.96L363.46 488.96zM500.3 567.96L568.71 607.46L568.71 686.46L500.3 725.96L431.88 686.46L431.88 607.46zM568.71 212.46L637.13 251.96L637.13 330.96L568.71 370.46L500.3 330.96L500.3 251.96zM773.97 93.96L842.39 133.46L842.39 212.46L773.97 251.96L705.55 212.46L705.55 133.46zM773.97 567.96L842.39 607.46L842.39 686.46L773.97 725.96L705.55 686.46L705.55 607.46zM842.39 -24.54L910.8 14.96L910.8 93.96L842.39 133.46L773.97 93.96L773.97 14.96zM842.39 212.46L910.8 251.96L910.8 330.96L842.39 370.46L773.97 330.96L773.97 251.96zM842.39 686.46L910.8 725.96L910.8 804.96L842.39 844.46L773.97 804.96L773.97 725.96zM910.8 804.96L979.22 844.46L979.22 923.46L910.8 962.96L842.39 923.46L842.39 844.46zM979.22 -24.54L1047.64 14.96L1047.64 93.96L979.22 133.46L910.8 93.96L910.8 14.96zM1047.64 330.96L1116.06 370.46L1116.06 449.46L1047.64 488.96L979.22 449.46L979.22 370.46zM979.22 449.46L1047.64 488.96L1047.64 567.96L979.22 607.46L910.8 567.96L910.8 488.96zM1184.48 93.96L1252.89 133.46L1252.89 212.46L1184.48 251.96L1116.06 212.46L1116.06 133.46zM1116.06 212.46L1184.48 251.96L1184.48 330.96L1116.06 370.46L1047.64 330.96L1047.64 251.96zM1184.48 330.96L1252.89 370.46L1252.89 449.46L1184.48 488.96L1116.06 449.46L1116.06 370.46zM1184.48 567.96L1252.89 607.46L1252.89 686.46L1184.48 725.96L1116.06 686.46L1116.06 607.46zM1184.48 804.96L1252.89 844.46L1252.89 923.46L1184.48 962.96L1116.06 923.46L1116.06 844.46zM1252.89 -24.54L1321.31 14.96L1321.31 93.96L1252.89 133.46L1184.48 93.96L1184.48 14.96zM1321.31 93.96L1389.73 133.46L1389.73 212.46L1321.31 251.96L1252.89 212.46L1252.89 133.46zM1252.89 449.46L1321.31 488.96L1321.31 567.96L1252.89 607.46L1184.48 567.96L1184.48 488.96zM1252.89 686.46L1321.31 725.96L1321.31 804.96L1252.89 844.46L1184.48 804.96L1184.48 725.96zM1389.73 -24.54L1458.15 14.96L1458.15 93.96L1389.73 133.46L1321.31 93.96L1321.31 14.96zM1389.73 212.46L1458.15 251.96L1458.15 330.96L1389.73 370.46L1321.31 330.96L1321.31 251.96zM1458.15 330.96L1526.56 370.46L1526.56 449.46L1458.15 488.96L1389.73 449.46L1389.73 370.46zM1389.73 686.46L1458.15 725.96L1458.15 804.96L1389.73 844.46L1321.31 804.96L1321.31 725.96zM1526.56 -24.54L1594.98 14.96L1594.98 93.96L1526.56 133.46L1458.15 93.96L1458.15 14.96zM1526.56 212.46L1594.98 251.96L1594.98 330.96L1526.56 370.46L1458.15 330.96L1458.15 251.96zM1594.98 330.96L1663.4 370.46L1663.4 449.46L1594.98 488.96L1526.56 449.46L1526.56 370.46zM1526.56 449.46L1594.98 488.96L1594.98 567.96L1526.56 607.46L1458.15 567.96L1458.15 488.96zM1594.98 567.96L1663.4 607.46L1663.4 686.46L1594.98 725.96L1526.56 686.46L1526.56 607.46zM1526.56 686.46L1594.98 725.96L1594.98 804.96L1526.56 844.46L1458.15 804.96L1458.15 725.96zM1663.4 -24.54L1731.82 14.96L1731.82 93.96L1663.4 133.46L1594.98 93.96L1594.98 14.96zM1663.4 212.46L1731.82 251.96L1731.82 330.96L1663.4 370.46L1594.98 330.96L1594.98 251.96zM1731.82 330.96L1800.24 370.46L1800.24 449.46L1731.82 488.96L1663.4 449.46L1663.4 370.46zM1663.4 923.46L1731.82 962.96L1731.82 1041.96L1663.4 1081.46L1594.98 1041.96L1594.98 962.96zM1800.24 -24.54L1868.65 14.96L1868.65 93.96L1800.24 133.46L1731.82 93.96L1731.82 14.96zM1868.65 330.96L1937.07 370.46L1937.07 449.46L1868.65 488.96L1800.24 449.46L1800.24 370.46zM1868.65 567.96L1937.07 607.46L1937.07 686.46L1868.65 725.96L1800.24 686.46L1800.24 607.46zM1868.65 804.96L1937.07 844.46L1937.07 923.46L1868.65 962.96L1800.24 923.46L1800.24 844.46z" stroke="url(#SvgjsLinearGradient3300)" stroke-width="2"></path><path d="M150.31 212.46 a7.9 7.9 0 1 0 15.8 0 a7.9 7.9 0 1 0 -15.8 0zM218.72 251.96 a7.9 7.9 0 1 0 15.8 0 a7.9 7.9 0 1 0 -15.8 0zM218.72 330.96 a7.9 7.9 0 1 0 15.8 0 a7.9 7.9 0 1 0 -15.8 0zM150.31 370.46 a7.9 7.9 0 1 0 15.8 0 a7.9 7.9 0 1 0 -15.8 0zM81.89 330.96 a7.9 7.9 0 1 0 15.8 0 a7.9 7.9 0 1 0 -15.8 0zM81.89 251.96 a7.9 7.9 0 1 0 15.8 0 a7.9 7.9 0 1 0 -15.8 0zM218.72 567.96 a7.9 7.9 0 1 0 15.8 0 a7.9 7.9 0 1 0 -15.8 0zM287.14 607.46 a7.9 7.9 0 1 0 15.8 0 a7.9 7.9 0 1 0 -15.8 0zM287.14 686.46 a7.9 7.9 0 1 0 15.8 0 a7.9 7.9 0 1 0 -15.8 0zM218.72 725.96 a7.9 7.9 0 1 0 15.8 0 a7.9 7.9 0 1 0 -15.8 0zM150.31 686.46 a7.9 7.9 0 1 0 15.8 0 a7.9 7.9 0 1 0 -15.8 0zM150.31 607.46 a7.9 7.9 0 1 0 15.8 0 a7.9 7.9 0 1 0 -15.8 0zM150.31 923.46 a7.9 7.9 0 1 0 15.8 0 a7.9 7.9 0 1 0 -15.8 0zM218.72 962.96 a7.9 7.9 0 1 0 15.8 0 a7.9 7.9 0 1 0 -15.8 0zM218.72 1041.96 a7.9 7.9 0 1 0 15.8 0 a7.9 7.9 0 1 0 -15.8 0zM150.31 1081.46 a7.9 7.9 0 1 0 15.8 0 a7.9 7.9 0 1 0 -15.8 0zM81.89 1041.96 a7.9 7.9 0 1 0 15.8 0 a7.9 7.9 0 1 0 -15.8 0zM81.89 962.96 a7.9 7.9 0 1 0 15.8 0 a7.9 7.9 0 1 0 -15.8 0zM355.56 330.96 a7.9 7.9 0 1 0 15.8 0 a7.9 7.9 0 1 0 -15.8 0zM423.98 370.46 a7.9 7.9 0 1 0 15.8 0 a7.9 7.9 0 1 0 -15.8 0zM423.98 449.46 a7.9 7.9 0 1 0 15.8 0 a7.9 7.9 0 1 0 -15.8 0zM355.56 488.96 a7.9 7.9 0 1 0 15.8 0 a7.9 7.9 0 1 0 -15.8 0zM287.14 449.46 a7.9 7.9 0 1 0 15.8 0 a7.9 7.9 0 1 0 -15.8 0zM287.14 370.46 a7.9 7.9 0 1 0 15.8 0 a7.9 7.9 0 1 0 -15.8 0zM355.56 567.96 a7.9 7.9 0 1 0 15.8 0 a7.9 7.9 0 1 0 -15.8 0zM423.98 607.46 a7.9 7.9 0 1 0 15.8 0 a7.9 7.9 0 1 0 -15.8 0zM423.98 686.46 a7.9 7.9 0 1 0 15.8 0 a7.9 7.9 0 1 0 -15.8 0zM355.56 725.96 a7.9 7.9 0 1 0 15.8 0 a7.9 7.9 0 1 0 -15.8 0zM355.56 804.96 a7.9 7.9 0 1 0 15.8 0 a7.9 7.9 0 1 0 -15.8 0zM287.14 844.46 a7.9 7.9 0 1 0 15.8 0 a7.9 7.9 0 1 0 -15.8 0zM218.72 804.96 a7.9 7.9 0 1 0 15.8 0 a7.9 7.9 0 1 0 -15.8 0zM423.98 844.46 a7.9 7.9 0 1 0 15.8 0 a7.9 7.9 0 1 0 -15.8 0zM423.98 923.46 a7.9 7.9 0 1 0 15.8 0 a7.9 7.9 0 1 0 -15.8 0zM355.56 962.96 a7.9 7.9 0 1 0 15.8 0 a7.9 7.9 0 1 0 -15.8 0zM287.14 923.46 a7.9 7.9 0 1 0 15.8 0 a7.9 7.9 0 1 0 -15.8 0zM492.4 330.96 a7.9 7.9 0 1 0 15.8 0 a7.9 7.9 0 1 0 -15.8 0zM560.81 370.46 a7.9 7.9 0 1 0 15.8 0 a7.9 7.9 0 1 0 -15.8 0zM560.81 449.46 a7.9 7.9 0 1 0 15.8 0 a7.9 7.9 0 1 0 -15.8 0zM492.4 488.96 a7.9 7.9 0 1 0 15.8 0 a7.9 7.9 0 1 0 -15.8 0zM492.4 567.96 a7.9 7.9 0 1 0 15.8 0 a7.9 7.9 0 1 0 -15.8 0zM560.81 607.46 a7.9 7.9 0 1 0 15.8 0 a7.9 7.9 0 1 0 -15.8 0zM560.81 686.46 a7.9 7.9 0 1 0 15.8 0 a7.9 7.9 0 1 0 -15.8 0zM492.4 725.96 a7.9 7.9 0 1 0 15.8 0 a7.9 7.9 0 1 0 -15.8 0zM560.81 212.46 a7.9 7.9 0 1 0 15.8 0 a7.9 7.9 0 1 0 -15.8 0zM629.23 251.96 a7.9 7.9 0 1 0 15.8 0 a7.9 7.9 0 1 0 -15.8 0zM629.23 330.96 a7.9 7.9 0 1 0 15.8 0 a7.9 7.9 0 1 0 -15.8 0zM492.4 251.96 a7.9 7.9 0 1 0 15.8 0 a7.9 7.9 0 1 0 -15.8 0zM766.07 93.96 a7.9 7.9 0 1 0 15.8 0 a7.9 7.9 0 1 0 -15.8 0zM834.49 133.46 a7.9 7.9 0 1 0 15.8 0 a7.9 7.9 0 1 0 -15.8 0zM834.49 212.46 a7.9 7.9 0 1 0 15.8 0 a7.9 7.9 0 1 0 -15.8 0zM766.07 251.96 a7.9 7.9 0 1 0 15.8 0 a7.9 7.9 0 1 0 -15.8 0zM697.65 212.46 a7.9 7.9 0 1 0 15.8 0 a7.9 7.9 0 1 0 -15.8 0zM697.65 133.46 a7.9 7.9 0 1 0 15.8 0 a7.9 7.9 0 1 0 -15.8 0zM766.07 567.96 a7.9 7.9 0 1 0 15.8 0 a7.9 7.9 0 1 0 -15.8 0zM834.49 607.46 a7.9 7.9 0 1 0 15.8 0 a7.9 7.9 0 1 0 -15.8 0zM834.49 686.46 a7.9 7.9 0 1 0 15.8 0 a7.9 7.9 0 1 0 -15.8 0zM766.07 725.96 a7.9 7.9 0 1 0 15.8 0 a7.9 7.9 0 1 0 -15.8 0zM697.65 686.46 a7.9 7.9 0 1 0 15.8 0 a7.9 7.9 0 1 0 -15.8 0zM697.65 607.46 a7.9 7.9 0 1 0 15.8 0 a7.9 7.9 0 1 0 -15.8 0zM834.49 -24.54 a7.9 7.9 0 1 0 15.8 0 a7.9 7.9 0 1 0 -15.8 0zM902.9 14.96 a7.9 7.9 0 1 0 15.8 0 a7.9 7.9 0 1 0 -15.8 0zM902.9 93.96 a7.9 7.9 0 1 0 15.8 0 a7.9 7.9 0 1 0 -15.8 0zM766.07 14.96 a7.9 7.9 0 1 0 15.8 0 a7.9 7.9 0 1 0 -15.8 0zM902.9 251.96 a7.9 7.9 0 1 0 15.8 0 a7.9 7.9 0 1 0 -15.8 0zM902.9 330.96 a7.9 7.9 0 1 0 15.8 0 a7.9 7.9 0 1 0 -15.8 0zM834.49 370.46 a7.9 7.9 0 1 0 15.8 0 a7.9 7.9 0 1 0 -15.8 0zM766.07 330.96 a7.9 7.9 0 1 0 15.8 0 a7.9 7.9 0 1 0 -15.8 0zM902.9 725.96 a7.9 7.9 0 1 0 15.8 0 a7.9 7.9 0 1 0 -15.8 0zM902.9 804.96 a7.9 7.9 0 1 0 15.8 0 a7.9 7.9 0 1 0 -15.8 0zM834.49 844.46 a7.9 7.9 0 1 0 15.8 0 a7.9 7.9 0 1 0 -15.8 0zM766.07 804.96 a7.9 7.9 0 1 0 15.8 0 a7.9 7.9 0 1 0 -15.8 0zM971.32 844.46 a7.9 7.9 0 1 0 15.8 0 a7.9 7.9 0 1 0 -15.8 0zM971.32 923.46 a7.9 7.9 0 1 0 15.8 0 a7.9 7.9 0 1 0 -15.8 0zM902.9 962.96 a7.9 7.9 0 1 0 15.8 0 a7.9 7.9 0 1 0 -15.8 0zM834.49 923.46 a7.9 7.9 0 1 0 15.8 0 a7.9 7.9 0 1 0 -15.8 0zM971.32 -24.54 a7.9 7.9 0 1 0 15.8 0 a7.9 7.9 0 1 0 -15.8 0zM1039.74 14.96 a7.9 7.9 0 1 0 15.8 0 a7.9 7.9 0 1 0 -15.8 0zM1039.74 93.96 a7.9 7.9 0 1 0 15.8 0 a7.9 7.9 0 1 0 -15.8 0zM971.32 133.46 a7.9 7.9 0 1 0 15.8 0 a7.9 7.9 0 1 0 -15.8 0zM1039.74 330.96 a7.9 7.9 0 1 0 15.8 0 a7.9 7.9 0 1 0 -15.8 0zM1108.16 370.46 a7.9 7.9 0 1 0 15.8 0 a7.9 7.9 0 1 0 -15.8 0zM1108.16 449.46 a7.9 7.9 0 1 0 15.8 0 a7.9 7.9 0 1 0 -15.8 0zM1039.74 488.96 a7.9 7.9 0 1 0 15.8 0 a7.9 7.9 0 1 0 -15.8 0zM971.32 449.46 a7.9 7.9 0 1 0 15.8 0 a7.9 7.9 0 1 0 -15.8 0zM971.32 370.46 a7.9 7.9 0 1 0 15.8 0 a7.9 7.9 0 1 0 -15.8 0zM1039.74 567.96 a7.9 7.9 0 1 0 15.8 0 a7.9 7.9 0 1 0 -15.8 0zM971.32 607.46 a7.9 7.9 0 1 0 15.8 0 a7.9 7.9 0 1 0 -15.8 0zM902.9 567.96 a7.9 7.9 0 1 0 15.8 0 a7.9 7.9 0 1 0 -15.8 0zM902.9 488.96 a7.9 7.9 0 1 0 15.8 0 a7.9 7.9 0 1 0 -15.8 0zM1176.58 93.96 a7.9 7.9 0 1 0 15.8 0 a7.9 7.9 0 1 0 -15.8 0zM1244.99 133.46 a7.9 7.9 0 1 0 15.8 0 a7.9 7.9 0 1 0 -15.8 0zM1244.99 212.46 a7.9 7.9 0 1 0 15.8 0 a7.9 7.9 0 1 0 -15.8 0zM1176.58 251.96 a7.9 7.9 0 1 0 15.8 0 a7.9 7.9 0 1 0 -15.8 0zM1108.16 212.46 a7.9 7.9 0 1 0 15.8 0 a7.9 7.9 0 1 0 -15.8 0zM1108.16 133.46 a7.9 7.9 0 1 0 15.8 0 a7.9 7.9 0 1 0 -15.8 0zM1176.58 330.96 a7.9 7.9 0 1 0 15.8 0 a7.9 7.9 0 1 0 -15.8 0zM1039.74 251.96 a7.9 7.9 0 1 0 15.8 0 a7.9 7.9 0 1 0 -15.8 0zM1244.99 370.46 a7.9 7.9 0 1 0 15.8 0 a7.9 7.9 0 1 0 -15.8 0zM1244.99 449.46 a7.9 7.9 0 1 0 15.8 0 a7.9 7.9 0 1 0 -15.8 0zM1176.58 488.96 a7.9 7.9 0 1 0 15.8 0 a7.9 7.9 0 1 0 -15.8 0zM1176.58 567.96 a7.9 7.9 0 1 0 15.8 0 a7.9 7.9 0 1 0 -15.8 0zM1244.99 607.46 a7.9 7.9 0 1 0 15.8 0 a7.9 7.9 0 1 0 -15.8 0zM1244.99 686.46 a7.9 7.9 0 1 0 15.8 0 a7.9 7.9 0 1 0 -15.8 0zM1176.58 725.96 a7.9 7.9 0 1 0 15.8 0 a7.9 7.9 0 1 0 -15.8 0zM1108.16 686.46 a7.9 7.9 0 1 0 15.8 0 a7.9 7.9 0 1 0 -15.8 0zM1108.16 607.46 a7.9 7.9 0 1 0 15.8 0 a7.9 7.9 0 1 0 -15.8 0zM1176.58 804.96 a7.9 7.9 0 1 0 15.8 0 a7.9 7.9 0 1 0 -15.8 0zM1244.99 844.46 a7.9 7.9 0 1 0 15.8 0 a7.9 7.9 0 1 0 -15.8 0zM1244.99 923.46 a7.9 7.9 0 1 0 15.8 0 a7.9 7.9 0 1 0 -15.8 0zM1176.58 962.96 a7.9 7.9 0 1 0 15.8 0 a7.9 7.9 0 1 0 -15.8 0zM1108.16 923.46 a7.9 7.9 0 1 0 15.8 0 a7.9 7.9 0 1 0 -15.8 0zM1108.16 844.46 a7.9 7.9 0 1 0 15.8 0 a7.9 7.9 0 1 0 -15.8 0zM1244.99 -24.54 a7.9 7.9 0 1 0 15.8 0 a7.9 7.9 0 1 0 -15.8 0zM1313.41 14.96 a7.9 7.9 0 1 0 15.8 0 a7.9 7.9 0 1 0 -15.8 0zM1313.41 93.96 a7.9 7.9 0 1 0 15.8 0 a7.9 7.9 0 1 0 -15.8 0zM1176.58 14.96 a7.9 7.9 0 1 0 15.8 0 a7.9 7.9 0 1 0 -15.8 0zM1381.83 133.46 a7.9 7.9 0 1 0 15.8 0 a7.9 7.9 0 1 0 -15.8 0zM1381.83 212.46 a7.9 7.9 0 1 0 15.8 0 a7.9 7.9 0 1 0 -15.8 0zM1313.41 251.96 a7.9 7.9 0 1 0 15.8 0 a7.9 7.9 0 1 0 -15.8 0zM1313.41 488.96 a7.9 7.9 0 1 0 15.8 0 a7.9 7.9 0 1 0 -15.8 0zM1313.41 567.96 a7.9 7.9 0 1 0 15.8 0 a7.9 7.9 0 1 0 -15.8 0zM1313.41 725.96 a7.9 7.9 0 1 0 15.8 0 a7.9 7.9 0 1 0 -15.8 0zM1313.41 804.96 a7.9 7.9 0 1 0 15.8 0 a7.9 7.9 0 1 0 -15.8 0zM1381.83 -24.54 a7.9 7.9 0 1 0 15.8 0 a7.9 7.9 0 1 0 -15.8 0zM1450.25 14.96 a7.9 7.9 0 1 0 15.8 0 a7.9 7.9 0 1 0 -15.8 0zM1450.25 93.96 a7.9 7.9 0 1 0 15.8 0 a7.9 7.9 0 1 0 -15.8 0zM1450.25 251.96 a7.9 7.9 0 1 0 15.8 0 a7.9 7.9 0 1 0 -15.8 0zM1450.25 330.96 a7.9 7.9 0 1 0 15.8 0 a7.9 7.9 0 1 0 -15.8 0zM1381.83 370.46 a7.9 7.9 0 1 0 15.8 0 a7.9 7.9 0 1 0 -15.8 0zM1313.41 330.96 a7.9 7.9 0 1 0 15.8 0 a7.9 7.9 0 1 0 -15.8 0zM1518.66 370.46 a7.9 7.9 0 1 0 15.8 0 a7.9 7.9 0 1 0 -15.8 0zM1518.66 449.46 a7.9 7.9 0 1 0 15.8 0 a7.9 7.9 0 1 0 -15.8 0zM1450.25 488.96 a7.9 7.9 0 1 0 15.8 0 a7.9 7.9 0 1 0 -15.8 0zM1381.83 449.46 a7.9 7.9 0 1 0 15.8 0 a7.9 7.9 0 1 0 -15.8 0zM1381.83 686.46 a7.9 7.9 0 1 0 15.8 0 a7.9 7.9 0 1 0 -15.8 0zM1450.25 725.96 a7.9 7.9 0 1 0 15.8 0 a7.9 7.9 0 1 0 -15.8 0zM1450.25 804.96 a7.9 7.9 0 1 0 15.8 0 a7.9 7.9 0 1 0 -15.8 0zM1381.83 844.46 a7.9 7.9 0 1 0 15.8 0 a7.9 7.9 0 1 0 -15.8 0zM1518.66 -24.54 a7.9 7.9 0 1 0 15.8 0 a7.9 7.9 0 1 0 -15.8 0zM1587.08 14.96 a7.9 7.9 0 1 0 15.8 0 a7.9 7.9 0 1 0 -15.8 0zM1587.08 93.96 a7.9 7.9 0 1 0 15.8 0 a7.9 7.9 0 1 0 -15.8 0zM1518.66 133.46 a7.9 7.9 0 1 0 15.8 0 a7.9 7.9 0 1 0 -15.8 0zM1518.66 212.46 a7.9 7.9 0 1 0 15.8 0 a7.9 7.9 0 1 0 -15.8 0zM1587.08 251.96 a7.9 7.9 0 1 0 15.8 0 a7.9 7.9 0 1 0 -15.8 0zM1587.08 330.96 a7.9 7.9 0 1 0 15.8 0 a7.9 7.9 0 1 0 -15.8 0zM1655.5 370.46 a7.9 7.9 0 1 0 15.8 0 a7.9 7.9 0 1 0 -15.8 0zM1655.5 449.46 a7.9 7.9 0 1 0 15.8 0 a7.9 7.9 0 1 0 -15.8 0zM1587.08 488.96 a7.9 7.9 0 1 0 15.8 0 a7.9 7.9 0 1 0 -15.8 0zM1587.08 567.96 a7.9 7.9 0 1 0 15.8 0 a7.9 7.9 0 1 0 -15.8 0zM1518.66 607.46 a7.9 7.9 0 1 0 15.8 0 a7.9 7.9 0 1 0 -15.8 0zM1450.25 567.96 a7.9 7.9 0 1 0 15.8 0 a7.9 7.9 0 1 0 -15.8 0zM1655.5 607.46 a7.9 7.9 0 1 0 15.8 0 a7.9 7.9 0 1 0 -15.8 0zM1655.5 686.46 a7.9 7.9 0 1 0 15.8 0 a7.9 7.9 0 1 0 -15.8 0zM1587.08 725.96 a7.9 7.9 0 1 0 15.8 0 a7.9 7.9 0 1 0 -15.8 0zM1518.66 686.46 a7.9 7.9 0 1 0 15.8 0 a7.9 7.9 0 1 0 -15.8 0zM1587.08 804.96 a7.9 7.9 0 1 0 15.8 0 a7.9 7.9 0 1 0 -15.8 0zM1518.66 844.46 a7.9 7.9 0 1 0 15.8 0 a7.9 7.9 0 1 0 -15.8 0zM1655.5 -24.54 a7.9 7.9 0 1 0 15.8 0 a7.9 7.9 0 1 0 -15.8 0zM1723.92 14.96 a7.9 7.9 0 1 0 15.8 0 a7.9 7.9 0 1 0 -15.8 0zM1723.92 93.96 a7.9 7.9 0 1 0 15.8 0 a7.9 7.9 0 1 0 -15.8 0zM1655.5 133.46 a7.9 7.9 0 1 0 15.8 0 a7.9 7.9 0 1 0 -15.8 0zM1655.5 212.46 a7.9 7.9 0 1 0 15.8 0 a7.9 7.9 0 1 0 -15.8 0zM1723.92 251.96 a7.9 7.9 0 1 0 15.8 0 a7.9 7.9 0 1 0 -15.8 0zM1723.92 330.96 a7.9 7.9 0 1 0 15.8 0 a7.9 7.9 0 1 0 -15.8 0zM1792.34 370.46 a7.9 7.9 0 1 0 15.8 0 a7.9 7.9 0 1 0 -15.8 0zM1792.34 449.46 a7.9 7.9 0 1 0 15.8 0 a7.9 7.9 0 1 0 -15.8 0zM1723.92 488.96 a7.9 7.9 0 1 0 15.8 0 a7.9 7.9 0 1 0 -15.8 0zM1655.5 923.46 a7.9 7.9 0 1 0 15.8 0 a7.9 7.9 0 1 0 -15.8 0zM1723.92 962.96 a7.9 7.9 0 1 0 15.8 0 a7.9 7.9 0 1 0 -15.8 0zM1723.92 1041.96 a7.9 7.9 0 1 0 15.8 0 a7.9 7.9 0 1 0 -15.8 0zM1655.5 1081.46 a7.9 7.9 0 1 0 15.8 0 a7.9 7.9 0 1 0 -15.8 0zM1587.08 1041.96 a7.9 7.9 0 1 0 15.8 0 a7.9 7.9 0 1 0 -15.8 0zM1587.08 962.96 a7.9 7.9 0 1 0 15.8 0 a7.9 7.9 0 1 0 -15.8 0zM1792.34 -24.54 a7.9 7.9 0 1 0 15.8 0 a7.9 7.9 0 1 0 -15.8 0zM1860.75 14.96 a7.9 7.9 0 1 0 15.8 0 a7.9 7.9 0 1 0 -15.8 0zM1860.75 93.96 a7.9 7.9 0 1 0 15.8 0 a7.9 7.9 0 1 0 -15.8 0zM1792.34 133.46 a7.9 7.9 0 1 0 15.8 0 a7.9 7.9 0 1 0 -15.8 0zM1860.75 330.96 a7.9 7.9 0 1 0 15.8 0 a7.9 7.9 0 1 0 -15.8 0zM1929.17 370.46 a7.9 7.9 0 1 0 15.8 0 a7.9 7.9 0 1 0 -15.8 0zM1929.17 449.46 a7.9 7.9 0 1 0 15.8 0 a7.9 7.9 0 1 0 -15.8 0zM1860.75 488.96 a7.9 7.9 0 1 0 15.8 0 a7.9 7.9 0 1 0 -15.8 0zM1860.75 567.96 a7.9 7.9 0 1 0 15.8 0 a7.9 7.9 0 1 0 -15.8 0zM1929.17 607.46 a7.9 7.9 0 1 0 15.8 0 a7.9 7.9 0 1 0 -15.8 0zM1929.17 686.46 a7.9 7.9 0 1 0 15.8 0 a7.9 7.9 0 1 0 -15.8 0zM1860.75 725.96 a7.9 7.9 0 1 0 15.8 0 a7.9 7.9 0 1 0 -15.8 0zM1792.34 686.46 a7.9 7.9 0 1 0 15.8 0 a7.9 7.9 0 1 0 -15.8 0zM1792.34 607.46 a7.9 7.9 0 1 0 15.8 0 a7.9 7.9 0 1 0 -15.8 0zM1860.75 804.96 a7.9 7.9 0 1 0 15.8 0 a7.9 7.9 0 1 0 -15.8 0zM1929.17 844.46 a7.9 7.9 0 1 0 15.8 0 a7.9 7.9 0 1 0 -15.8 0zM1929.17 923.46 a7.9 7.9 0 1 0 15.8 0 a7.9 7.9 0 1 0 -15.8 0zM1860.75 962.96 a7.9 7.9 0 1 0 15.8 0 a7.9 7.9 0 1 0 -15.8 0zM1792.34 923.46 a7.9 7.9 0 1 0 15.8 0 a7.9 7.9 0 1 0 -15.8 0zM1792.34 844.46 a7.9 7.9 0 1 0 15.8 0 a7.9 7.9 0 1 0 -15.8 0z" fill="url(#SvgjsLinearGradient3300)"></path><path d="M112.51 52.78L173.14 87.78L173.14 157.78L112.51 192.78L51.89 157.78L51.89 87.78zM112.51 682.78L173.14 717.78L173.14 787.78L112.51 822.78L51.89 787.78L51.89 717.78zM51.89 787.78L112.51 822.78L112.51 892.78L51.89 927.78L-8.73 892.78L-8.73 822.78zM112.51 892.78L173.14 927.78L173.14 997.78L112.51 1032.78L51.89 997.78L51.89 927.78zM233.76 52.78L294.38 87.78L294.38 157.78L233.76 192.78L173.14 157.78L173.14 87.78zM233.76 262.78L294.38 297.78L294.38 367.78L233.76 402.78L173.14 367.78L173.14 297.78zM233.76 472.78L294.38 507.78L294.38 577.78L233.76 612.78L173.14 577.78L173.14 507.78zM233.76 892.78L294.38 927.78L294.38 997.78L233.76 1032.78L173.14 997.78L173.14 927.78zM294.38 157.78L355.01 192.78L355.01 262.78L294.38 297.78L233.76 262.78L233.76 192.78zM355.01 262.78L415.63 297.78L415.63 367.78L355.01 402.78L294.38 367.78L294.38 297.78zM355.01 472.78L415.63 507.78L415.63 577.78L355.01 612.78L294.38 577.78L294.38 507.78zM415.63 367.78L476.25 402.78L476.25 472.78L415.63 507.78L355.01 472.78L355.01 402.78zM415.63 577.78L476.25 612.78L476.25 682.78L415.63 717.78L355.01 682.78L355.01 612.78zM415.63 787.78L476.25 822.78L476.25 892.78L415.63 927.78L355.01 892.78L355.01 822.78zM536.88 157.78L597.5 192.78L597.5 262.78L536.88 297.78L476.25 262.78L476.25 192.78zM597.5 262.78L658.13 297.78L658.13 367.78L597.5 402.78L536.88 367.78L536.88 297.78zM536.88 367.78L597.5 402.78L597.5 472.78L536.88 507.78L476.25 472.78L476.25 402.78zM718.75 52.78L779.37 87.78L779.37 157.78L718.75 192.78L658.13 157.78L658.13 87.78zM718.75 262.78L779.37 297.78L779.37 367.78L718.75 402.78L658.13 367.78L658.13 297.78zM658.13 367.78L718.75 402.78L718.75 472.78L658.13 507.78L597.5 472.78L597.5 402.78zM718.75 682.78L779.37 717.78L779.37 787.78L718.75 822.78L658.13 787.78L658.13 717.78zM840 52.78L900.62 87.78L900.62 157.78L840 192.78L779.37 157.78L779.37 87.78zM779.37 367.78L840 402.78L840 472.78L779.37 507.78L718.75 472.78L718.75 402.78zM779.37 577.78L840 612.78L840 682.78L779.37 717.78L718.75 682.78L718.75 612.78zM840 682.78L900.62 717.78L900.62 787.78L840 822.78L779.37 787.78L779.37 717.78zM779.37 997.78L840 1032.78L840 1102.78L779.37 1137.78L718.75 1102.78L718.75 1032.78zM900.62 157.78L961.24 192.78L961.24 262.78L900.62 297.78L840 262.78L840 192.78zM900.62 577.78L961.24 612.78L961.24 682.78L900.62 717.78L840 682.78L840 612.78zM900.62 787.78L961.24 822.78L961.24 892.78L900.62 927.78L840 892.78L840 822.78zM961.24 892.78L1021.87 927.78L1021.87 997.78L961.24 1032.78L900.62 997.78L900.62 927.78zM1082.49 52.78L1143.11 87.78L1143.11 157.78L1082.49 192.78L1021.87 157.78L1021.87 87.78zM1082.49 472.78L1143.11 507.78L1143.11 577.78L1082.49 612.78L1021.87 577.78L1021.87 507.78zM1143.11 157.78L1203.74 192.78L1203.74 262.78L1143.11 297.78L1082.49 262.78L1082.49 192.78zM1143.11 787.78L1203.74 822.78L1203.74 892.78L1143.11 927.78L1082.49 892.78L1082.49 822.78zM1203.74 892.78L1264.36 927.78L1264.36 997.78L1203.74 1032.78L1143.11 997.78L1143.11 927.78zM1324.98 52.78L1385.61 87.78L1385.61 157.78L1324.98 192.78L1264.36 157.78L1264.36 87.78zM1264.36 367.78L1324.98 402.78L1324.98 472.78L1264.36 507.78L1203.74 472.78L1203.74 402.78zM1264.36 577.78L1324.98 612.78L1324.98 682.78L1264.36 717.78L1203.74 682.78L1203.74 612.78zM1324.98 682.78L1385.61 717.78L1385.61 787.78L1324.98 822.78L1264.36 787.78L1264.36 717.78zM1324.98 892.78L1385.61 927.78L1385.61 997.78L1324.98 1032.78L1264.36 997.78L1264.36 927.78zM1264.36 997.78L1324.98 1032.78L1324.98 1102.78L1264.36 1137.78L1203.74 1102.78L1203.74 1032.78zM1385.61 157.78L1446.23 192.78L1446.23 262.78L1385.61 297.78L1324.98 262.78L1324.98 192.78zM1446.23 892.78L1506.85 927.78L1506.85 997.78L1446.23 1032.78L1385.61 997.78L1385.61 927.78zM1506.85 -52.22L1567.48 -17.22L1567.48 52.78L1506.85 87.78L1446.23 52.78L1446.23 -17.22zM1567.48 52.78L1628.1 87.78L1628.1 157.78L1567.48 192.78L1506.85 157.78L1506.85 87.78zM1506.85 367.78L1567.48 402.78L1567.48 472.78L1506.85 507.78L1446.23 472.78L1446.23 402.78zM1567.48 472.78L1628.1 507.78L1628.1 577.78L1567.48 612.78L1506.85 577.78L1506.85 507.78zM1506.85 997.78L1567.48 1032.78L1567.48 1102.78L1506.85 1137.78L1446.23 1102.78L1446.23 1032.78zM1628.1 157.78L1688.72 192.78L1688.72 262.78L1628.1 297.78L1567.48 262.78L1567.48 192.78zM1688.72 472.78L1749.35 507.78L1749.35 577.78L1688.72 612.78L1628.1 577.78L1628.1 507.78zM1688.72 682.78L1749.35 717.78L1749.35 787.78L1688.72 822.78L1628.1 787.78L1628.1 717.78zM1688.72 892.78L1749.35 927.78L1749.35 997.78L1688.72 1032.78L1628.1 997.78L1628.1 927.78zM1749.35 -52.22L1809.97 -17.22L1809.97 52.78L1749.35 87.78L1688.72 52.78L1688.72 -17.22zM1809.97 52.78L1870.6 87.78L1870.6 157.78L1809.97 192.78L1749.35 157.78L1749.35 87.78zM1809.97 262.78L1870.6 297.78L1870.6 367.78L1809.97 402.78L1749.35 367.78L1749.35 297.78zM1749.35 367.78L1809.97 402.78L1809.97 472.78L1749.35 507.78L1688.72 472.78L1688.72 402.78zM1809.97 472.78L1870.6 507.78L1870.6 577.78L1809.97 612.78L1749.35 577.78L1749.35 507.78zM1749.35 577.78L1809.97 612.78L1809.97 682.78L1749.35 717.78L1688.72 682.78L1688.72 612.78zM1749.35 997.78L1809.97 1032.78L1809.97 1102.78L1749.35 1137.78L1688.72 1102.78L1688.72 1032.78zM1870.6 367.78L1931.22 402.78L1931.22 472.78L1870.6 507.78L1809.97 472.78L1809.97 402.78zM1931.22 682.78L1991.84 717.78L1991.84 787.78L1931.22 822.78L1870.6 787.78L1870.6 717.78zM1870.6 787.78L1931.22 822.78L1931.22 892.78L1870.6 927.78L1809.97 892.78L1809.97 822.78z" stroke="url(#SvgjsLinearGradient3301)" stroke-width="2"></path></g><defs><mask id="SvgjsMask3298"><rect width="1900" height="1000" fill="#ffffff"></rect></mask><linearGradient x1="11.84%" y1="122.5%" x2="88.16%" y2="-22.5%" gradientUnits="userSpaceOnUse" id="SvgjsLinearGradient3299"><stop stop-color="rgba(78, 0, 158, 1)" offset="0"></stop><stop stop-color="rgba(235, 239, 243, 1)" offset="0.89"></stop></linearGradient><linearGradient x1="1675.04" y1="1225" x2="224.96" y2="-225" gradientUnits="userSpaceOnUse" id="SvgjsLinearGradient3300"><stop stop-color="rgba(105, 0, 158, 1)" offset="0.02"></stop><stop stop-color="rgba(181, 7, 244, 1)" offset="0.96"></stop></linearGradient><linearGradient x1="1900" y1="500" x2="0" y2="500" gradientUnits="userSpaceOnUse" id="SvgjsLinearGradient3301"><stop stop-color="#0e2a47" offset="0"></stop><stop stop-color="rgba(238, 238, 204, 1)" offset="1"></stop></linearGradient></defs></svg>